<?xml version="1.0" encoding="utf-8"?>
<!-- Generator: Adobe Illustrator 16.0.0, SVG Export Plug-In . SVG Version: 6.00 Build 0)  -->
<!DOCTYPE svg PUBLIC "-//W3C//DTD SVG 1.1//EN" "http://www.w3.org/Graphics/SVG/1.1/DTD/svg11.dtd">
<svg version="1.1" id="Layer_1" xmlns="http://www.w3.org/2000/svg" xmlns:xlink="http://www.w3.org/1999/xlink" x="0px" y="0px"
	 width="38.667px" height="44.372px" viewBox="0 0 38.667 44.372" enable-background="new 0 0 38.667 44.372" xml:space="preserve">
<g>
	<defs>
		<rect id="SVGID_1_" x="-122" y="-258.28" width="841.89" height="595.28"/>
	</defs>
	<clipPath id="SVGID_2_">
		<use xlink:href="#SVGID_1_"  overflow="visible"/>
	</clipPath>
	<path clip-path="url(#SVGID_2_)" fill="#73D4FF" d="M8.845,14.115c0,0-4.064,6.839,0,11.807c4.064,4.967,0,13.547,0,13.547
		s5.017-10.739,11.54-10.336c6.523,0.402,14.651,7.627,13.749,10.336c0,0,2.347-9.405,0.068-15.641
		c-2.277-6.235-4.034-9.713-2.277-9.713H8.845z"/>
	<path clip-path="url(#SVGID_2_)" d="M30.659,19.817c0,6.373-5.167,11.54-11.54,11.54s-11.54-5.167-11.54-11.54
		c0-6.374,5.167-11.54,11.54-11.54S30.659,13.443,30.659,19.817"/>
	<polygon clip-path="url(#SVGID_2_)" points="9.385,1.955 9.385,13.222 27.904,13.222 25.753,5.567 	"/>
	<path clip-path="url(#SVGID_2_)" fill="#73D4FF" d="M22.247,19.576c2.778-0.963,7.458-0.646,8.411-2.333H7.578
		c0,0-2.303,4.168-1.802,6.849c0,0,2.829-4.123,6.548-4.516l4.051,3.372L22.247,19.576z"/>
	<path clip-path="url(#SVGID_2_)" d="M20.561,37.623h-3.099c-1.524,0-2.772-1.247-2.772-2.772v-2.015
		c0-1.525,1.248-2.773,2.772-2.773h3.099c1.524,0,2.772,1.248,2.772,2.773v2.015C23.333,36.376,22.085,37.623,20.561,37.623"/>
	<path clip-path="url(#SVGID_2_)" d="M17.516,33.24c0,0-9.938,0.604-11.811,3.302c-2.174,3.135-1.365,7.438-1.365,7.438h29.951
		c0,0-0.043-4.374-1.347-6.356C31.712,35.751,28.198,33.227,17.516,33.24"/>
	<polygon clip-path="url(#SVGID_2_)" points="36.397,16.339 1.839,19.817 10.333,5.567 	"/>
	<path clip-path="url(#SVGID_2_)" fill="#73D4FF" d="M26.182,12.506c0,0,6.163-1.621,8.297-4.588l2.134-2.966
		C36.613,4.952,30.524,5.59,26.182,12.506"/>
</g>
</svg>
