<?xml version="1.0" encoding="utf-8"?>
<!-- Generator: Adobe Illustrator 16.0.0, SVG Export Plug-In . SVG Version: 6.00 Build 0)  -->
<!DOCTYPE svg PUBLIC "-//W3C//DTD SVG 1.1//EN" "http://www.w3.org/Graphics/SVG/1.1/DTD/svg11.dtd">
<svg version="1.1" id="Layer_1" xmlns="http://www.w3.org/2000/svg" xmlns:xlink="http://www.w3.org/1999/xlink" x="0px" y="0px"
	 width="346.222px" height="47.998px" viewBox="0 0 346.222 47.998" enable-background="new 0 0 346.222 47.998"
	 xml:space="preserve">
<g>
	<path d="M15.329,0.96c0-0.6,0.361-0.96,0.961-0.96h6.18c0.719,0,1.02,0.36,1.02,0.96v46.078c0,0.6-0.301,0.96-1.02,0.96h-6.18
		c-0.6,0-0.961-0.36-0.961-0.96V27.959h-7.68v19.079c0,0.6-0.359,0.96-0.959,0.96H0.51c-0.721,0-1.02-0.36-1.02-0.96V0.96
		C-0.509,0.36-0.21,0,0.51,0h6.18c0.6,0,0.959,0.36,0.959,0.96v19.079h7.68V0.96z"/>
	<path d="M30.45,47.998c-0.66,0-0.959-0.36-0.959-0.96V6.96c0-0.6,0.299-0.96,0.959-0.96h6.24c0.6,0,0.959,0.36,0.959,0.96v40.078
		c0,0.6-0.359,0.96-0.959,0.96H30.45z"/>
	<path d="M59.008,6c5.641,0,8.641,3,8.641,8.64v3.959c0,0.6-0.301,0.96-0.961,0.96h-6.059c-0.6,0-0.961-0.36-0.961-0.96v-2.52
		c0-1.56-0.779-2.399-2.4-2.399h-3.299c-1.5,0-2.4,0.84-2.4,2.399v5.1l14.52,4.68c1.02,0.36,1.561,1.08,1.561,2.22v11.279
		c0,5.64-3,8.64-8.641,8.64H52.29c-5.58,0-8.641-3-8.641-8.64v-3.9c0-0.66,0.361-0.96,0.961-0.96h6.059c0.66,0,0.961,0.3,0.961,0.96
		v2.52c0,1.62,0.9,2.4,2.4,2.4h3.238c1.561,0,2.4-0.78,2.4-2.4v-6.06l-14.398-4.68c-1.08-0.36-1.621-1.08-1.621-2.22V14.64
		C43.649,9,46.709,6,52.29,6H59.008z"/>
	<path d="M93.688,6c0.66,0,0.961,0.36,0.961,0.96v6c0,0.6-0.301,0.96-0.961,0.96h-6.959v33.119c0,0.66-0.301,0.96-0.961,0.96H79.53
		c-0.602,0-0.961-0.3-0.961-0.96V13.919H71.61c-0.602,0-0.961-0.36-0.961-0.96v-6c0-0.6,0.359-0.96,0.961-0.96H93.688z"/>
	<path d="M98.909,14.64c0-5.64,3-8.64,8.641-8.64h6.719c5.641,0,8.641,3,8.641,8.64v24.719c0,5.64-3,8.64-8.641,8.64h-6.719
		c-5.641,0-8.641-3-8.641-8.64V14.64z M112.948,40.258c1.561,0,2.4-0.78,2.4-2.4V16.139c0-1.56-0.84-2.4-2.4-2.4h-3.84
		c-1.559,0-2.4,0.84-2.4,2.4v21.719c0,1.62,0.842,2.4,2.4,2.4H112.948z"/>
	<path d="M152.967,21.119c0,0.6-0.359,0.96-0.959,0.96h-5.641c-0.66,0-0.959-0.36-0.959-0.96v-4.92c0-1.56-0.84-2.4-2.4-2.4h-3.84
		c-1.619,0-2.4,0.84-2.4,2.4v21.779c0,1.62,0.84,2.4,2.4,2.4h3.84c1.561,0,2.4-0.78,2.4-2.4v-5.1c0-0.6,0.299-0.96,0.959-0.96h5.641
		c0.6,0,0.959,0.36,0.959,0.96v6.479c0,5.64-3.059,8.64-8.639,8.64h-6.721c-5.639,0-8.699-3-8.699-8.64V14.64
		c0-5.64,3.061-8.64,8.699-8.64h6.721c5.58,0,8.639,3,8.639,8.64V21.119z"/>
	<path d="M182.967,26.699c0,3.48-1.141,5.94-3.359,7.32l3.119,12.899c0.18,0.72-0.18,1.08-0.84,1.08h-5.879
		c-0.602,0-0.9-0.3-1.021-0.84l-2.879-11.82h-5.34v11.7c0,0.6-0.359,0.96-0.961,0.96h-5.879c-0.6,0-0.959-0.36-0.959-0.96V6.96
		c0-0.6,0.359-0.96,0.959-0.96h14.4c5.639,0,8.639,3,8.639,8.64V26.699z M172.768,27.599c1.561,0,2.4-0.84,2.4-2.399v-9.06
		c0-1.56-0.84-2.4-2.4-2.4h-6v13.859H172.768z"/>
	<path d="M210.327,47.998c-0.539,0-0.84-0.3-0.959-0.84l-1.92-7.56h-11.279l-1.861,7.56c-0.119,0.54-0.42,0.84-0.959,0.84h-5.881
		c-0.658,0-0.959-0.36-0.779-1.02l9.959-40.138c0.121-0.6,0.48-0.84,1.021-0.84h8.34c0.539,0,0.898,0.24,1.02,0.84l9.959,40.138
		c0.18,0.66-0.119,1.02-0.84,1.02H210.327z M201.807,16.319l-3.779,16.319h7.561L201.807,16.319z"/>
	<path d="M244.167,21.119c0,0.6-0.359,0.96-0.959,0.96h-5.641c-0.66,0-0.961-0.36-0.961-0.96v-4.92c0-1.56-0.84-2.4-2.398-2.4h-3.84
		c-1.621,0-2.4,0.84-2.4,2.4v21.779c0,1.62,0.84,2.4,2.4,2.4h3.84c1.559,0,2.398-0.78,2.398-2.4v-5.1c0-0.6,0.301-0.96,0.961-0.96
		h5.641c0.6,0,0.959,0.36,0.959,0.96v6.479c0,5.64-3.061,8.64-8.639,8.64h-6.721c-5.641,0-8.699-3-8.699-8.64V14.64
		c0-5.64,3.059-8.64,8.699-8.64h6.721c5.578,0,8.639,3,8.639,8.64V21.119z"/>
	<path d="M277.045,6c0.9,0,1.32,0.6,0.961,1.38l-10.98,24.899v14.519c0,0.78-0.42,1.2-1.199,1.2h-5.76
		c-0.779,0-1.199-0.42-1.199-1.2V32.279L247.887,7.38C247.528,6.6,247.948,6,248.846,6h6c0.721,0,1.141,0.36,1.381,0.96
		l6.719,15.419l6.721-15.419c0.24-0.6,0.66-0.96,1.379-0.96H277.045z"/>
</g>
<polygon fill="#CF0803" points="346.73,47.998 346.73,7.251 339.201,7.251 319.713,27.625 319.713,7.251 312.186,7.251 
	312.186,47.998 319.713,47.998 319.713,36.926 339.201,36.926 339.201,47.998 "/>
<polygon fill="#FFFFFF" points="329.457,27.625 339.176,16.926 339.176,27.625 "/>
<polygon fill="#F8CC0B" points="277.639,7.251 277.639,47.998 285.166,47.998 304.656,27.625 304.656,47.998 312.186,47.998 
	312.186,7.251 304.656,7.251 304.656,18.323 285.166,18.323 285.166,7.251 "/>
<polygon fill="#FFFFFF" points="295.85,27.431 285.408,39.141 285.408,27.431 "/>
</svg>
