<svg xmlns="http://www.w3.org/2000/svg" viewBox="0 0 350.24 60.24"><defs><style>.cls-1{font-size:60px;font-family:Norwester-Regular, Norwester;}.cls-2{letter-spacing:-0.03em;}.cls-3{letter-spacing:-0.01em;}.cls-4{letter-spacing:-0.02em;}.cls-5{letter-spacing:-0.03em;}.cls-6{fill:#cf0803;}.cls-7{fill:#fff;}.cls-8{fill:#f8cc0b;}</style></defs><title>Asset 1</title><g id="Layer_2" data-name="Layer 2"><g id="Layer_1-2" data-name="Layer 1"><text class="cls-1" transform="translate(0 51)">Hi<tspan class="cls-2" x="44.16" y="0">s</tspan><tspan class="cls-3" x="72.36" y="0">t</tspan><tspan x="99.36" y="0">oc</tspan><tspan class="cls-4" x="159.42" y="0">r</tspan><tspan class="cls-5" x="188.22" y="0">a</tspan><tspan x="220.44" y="0">cy</tspan></text><polygon class="cls-6" points="350.24 51 350.24 10.25 342.71 10.25 323.22 30.63 323.22 10.25 315.69 10.25 315.69 51 323.22 51 323.22 39.93 342.71 39.93 342.71 51 350.24 51"/><polygon class="cls-7" points="332.97 30.63 342.69 19.93 342.69 30.63 332.97 30.63"/><polygon class="cls-8" points="281.15 10.25 281.15 51 288.68 51 308.17 30.63 308.17 51 315.69 51 315.69 10.25 308.17 10.25 308.17 21.32 288.68 21.32 288.68 10.25 281.15 10.25"/><polygon class="cls-7" points="299.36 30.43 288.92 42.14 288.92 30.43 299.36 30.43"/></g></g></svg>